<svg xmlns="http://www.w3.org/2000/svg" xmlns:xlink="http://www.w3.org/1999/xlink" xml:space="preserve" id="Layer_1" x="0" y="0" style="enable-background:new 0 0 1200 1200" version="1.1" viewBox="0 0 1200 1200"><style>.st4{fill-rule:evenodd;clip-rule:evenodd;fill:#0072bc}</style><defs><path id="SVGID_1_" d="M23.7 23.7h1152.6v1152.6H23.7z"/></defs><clipPath id="SVGID_00000157990190681651482490000011054008234615160461_"><use xlink:href="#SVGID_1_" style="overflow:visible"/></clipPath><g style="clip-path:url(#SVGID_00000157990190681651482490000011054008234615160461_)"><defs><path id="SVGID_00000011014237122385733980000013760807767588501378_" d="M23.7 23.7h1147.9v1147.9H23.7z"/></defs><clipPath id="SVGID_00000152967920908599650150000013325404462899359932_"><use xlink:href="#SVGID_00000011014237122385733980000013760807767588501378_" style="overflow:visible"/></clipPath><g style="clip-path:url(#SVGID_00000152967920908599650150000013325404462899359932_)"><defs><filter id="Adobe_OpacityMaskFilter" width="1185.5" height="1283.8" x="23.7" y="23.7" filterUnits="userSpaceOnUse"><feColorMatrix values="1 0 0 0 0 0 1 0 0 0 0 0 1 0 0 0 0 0 1 0"/></filter></defs><mask id="mask0_655_674_00000045621196257361173720000001616143604486516867_" width="1185.5" height="1283.8" x="23.7" y="23.7" maskUnits="userSpaceOnUse"><path d="M789 23.7H406.3C113.7 23.7 23.7 199 23.7 405v766.6h1147.9V23.7H789z" style="fill:#fff;filter:url(#Adobe_OpacityMaskFilter)"/></mask><g style="mask:url(#mask0_655_674_00000045621196257361173720000001616143604486516867_)"><path d="M780 1171.6V23.7h18v1147.9h-18zM397.4 1171.6V23.7h18v1147.9h-18z" class="st4"/><path d="M23.7 779.9h1147.9v18H23.7v-18zM23.7 397.3h1147.9v18H23.7v-18z" class="st4"/><path d="M23.7 405c0-206 90-381.3 382.6-381.3 204.1 0 305 216.4 366.8 349.1 5.5 11.9 10.8 23.1 15.7 33.4l420.3 837.6H825.3l-229.2-455-189.7-387.5 1.1 842.4H23.7V405z" class="st4"/><path d="M23.7 1171.6V23.7h1147.9v1147.9H23.7zm1129.9-18V41.7H41.7v1111.9h1111.9z" class="st4"/><path d="m388.4 401.3 34.2-7.9 189.7 387.4 265.4 526.6H388.4V401.3zm36 77.8v792.4h394.7L579.9 796.7 424.4 479.1z" class="st4"/></g></g></g></svg>